<svg width="29" height="38" viewBox="0 0 29 38" fill="none" xmlns="http://www.w3.org/2000/svg">
<path d="M26.5791 29.5592L20.3825 26.1793C20.0483 25.9982 19.7595 25.7439 19.5376 25.4353C19.3158 25.1267 19.1667 24.7718 19.1016 24.3974L18.9751 23.6966L25.7408 19.0129C26.1125 18.7557 26.4291 18.4267 26.672 18.0454C26.9148 17.6641 27.0791 17.2382 27.155 16.7925L27.4595 14.9617C27.5156 14.6249 27.4682 14.2789 27.3235 13.9696C27.1788 13.6603 26.9436 13.4022 26.649 13.2295C26.3544 13.0567 26.0143 12.9775 25.6737 13.0022C25.3331 13.0269 25.0081 13.1544 24.7415 13.3679L22.7176 14.9887C22.4844 15.1741 22.2204 15.3169 21.9376 15.4104L17.7666 16.801L17.6258 16.0226C17.4538 15.0425 17.0453 14.1192 16.4355 13.3328C15.8258 12.5465 15.0333 11.9208 14.127 11.5101C15.793 9.93583 16.7765 7.77182 16.8668 5.48142C16.8668 4.02766 16.2893 2.63344 15.2614 1.60547C14.2334 0.577505 12.8392 0 11.3854 0C9.93165 0 8.53743 0.577505 7.50946 1.60547C6.48149 2.63344 5.90399 4.02766 5.90399 5.48142C5.94865 6.64748 6.22701 7.79269 6.72257 8.84914C7.21813 9.9056 7.9208 10.8518 8.7889 11.6316C7.86453 12.1038 7.07608 12.8042 6.4983 13.6665C5.92052 14.5289 5.57256 15.5245 5.4874 16.559L4.26715 30.5964C3.65261 30.7978 3.09318 31.139 2.63284 31.5932L0.596286 33.6298C0.31152 33.9145 0.117608 34.2773 0.0390797 34.6723C-0.0394482 35.0673 0.000936751 35.4767 0.155126 35.8487C0.309315 36.2207 0.57038 36.5387 0.905295 36.7623C1.24021 36.9859 1.63393 37.1052 2.03663 37.105H24.6547C25.5475 37.105 26.415 36.8076 27.1201 36.2598C27.8251 35.7119 28.3277 34.9449 28.5483 34.0797C28.769 33.2145 28.6952 32.3005 28.3386 31.4819C27.982 30.6633 27.3629 29.9868 26.5791 29.5592ZM25.7923 14.6851L25.4878 16.5151C25.4502 16.7376 25.3686 16.9504 25.2476 17.141C25.1267 17.3315 24.969 17.4961 24.7837 17.6249L24.2575 17.9892L23.3906 16.5556C23.5201 16.478 23.6454 16.3936 23.7658 16.3026L25.7923 14.6851ZM11.3854 1.68659C12.1677 1.68898 12.93 1.93343 13.5678 2.38641C14.2056 2.83938 14.6875 3.47865 14.9475 4.21648H7.82333C8.08327 3.47865 8.56522 2.83938 9.203 2.38641C9.84078 1.93343 10.6031 1.68898 11.3854 1.68659ZM7.61166 5.90307H15.1592C14.95 8.14539 13.1546 10.9628 11.3854 10.9628C9.61618 10.9628 7.8208 8.14539 7.61166 5.90307ZM1.68751 35.0693C1.68767 34.9767 1.72434 34.8879 1.78955 34.8222L3.82526 32.7856C4.16426 32.4475 4.59294 32.2134 5.06069 32.111V35.4184H2.03663C1.94404 35.4184 1.85524 35.3816 1.78977 35.3162C1.72429 35.2507 1.68751 35.1619 1.68751 35.0693ZM24.6547 35.4184H6.74728V32.0452H14.3369C14.5606 32.0452 14.7751 31.9564 14.9332 31.7982C15.0914 31.6401 15.1802 31.4256 15.1802 31.2019C15.1802 30.9783 15.0914 30.7638 14.9332 30.6056C14.7751 30.4475 14.5606 30.3586 14.3369 30.3586H5.98073L7.16893 16.7048C7.26158 15.631 7.74168 14.6275 8.51969 13.8816C9.2977 13.1357 10.3205 12.6982 11.3973 12.6508C12.4741 12.6034 13.5313 12.9494 14.3718 13.6241C15.2123 14.2988 15.7787 15.2562 15.9653 16.3178L16.1467 17.3424L14.9154 17.7531C14.703 17.8238 14.5273 17.9761 14.4271 18.1764C14.3269 18.3767 14.3104 18.6086 14.3812 18.8211C14.452 19.0336 14.6043 19.2092 14.8046 19.3094C15.0049 19.4096 15.2368 19.4261 15.4493 19.3553L21.8288 17.2285L22.8711 18.9531L17.4993 22.672C16.8744 23.1052 16.1429 23.3591 15.384 23.406C14.6251 23.4529 13.8678 23.2911 13.1944 22.9381C12.5209 22.5851 11.957 22.0545 11.5638 21.4037C11.1705 20.7529 10.963 20.0069 10.9638 19.2465V17.7092C10.9638 17.4855 10.8749 17.2711 10.7168 17.1129C10.5586 16.9548 10.3441 16.8659 10.1205 16.8659C9.89681 16.8659 9.68231 16.9548 9.52417 17.1129C9.36602 17.2711 9.27717 17.4855 9.27717 17.7092V19.2465C9.26999 20.2165 9.50565 21.1728 9.96269 22.0284C10.4197 22.884 11.0836 23.6116 11.8938 24.1449C12.704 24.6782 13.6348 25.0003 14.6014 25.0818C15.5679 25.1633 16.5395 25.0017 17.4276 24.6116L17.4411 24.69C17.5494 25.314 17.7976 25.9055 18.1671 26.4199C18.5366 26.9343 19.0178 27.3583 19.5747 27.6601L25.772 31.04C26.2268 31.2882 26.5859 31.6809 26.7928 32.1559C26.9996 32.6309 27.0423 33.1613 26.9142 33.6633C26.7861 34.1653 26.4944 34.6103 26.0853 34.9281C25.6761 35.246 25.1728 35.4185 24.6547 35.4184Z" fill="#F2B84B" fill-opacity="0.9"/>
</svg>
