<svg width="38" height="38" viewBox="0 0 38 38" fill="none" xmlns="http://www.w3.org/2000/svg">
<path d="M18.6234 0C13.8574 0 9.07782 1.82282 5.44669 5.45394C-1.81556 12.7162 -1.81556 24.5161 5.44669 31.7783C12.7089 39.0406 24.5233 39.0406 31.7856 31.7783C39.0479 24.5161 39.0479 12.7162 31.7856 5.45394C28.1545 1.82282 23.3895 0 18.6234 0ZM17.809 1.87616C17.8187 1.8757 17.8283 1.87659 17.8381 1.87616V2.79242H19.3797V1.87616C23.4039 2.06587 27.3694 3.69929 30.4476 6.77743C33.5257 9.85558 35.1635 13.8254 35.3488 17.8453H34.4326V19.387H35.3488C35.1635 23.4068 33.5257 27.3767 30.4476 30.4548C27.3694 33.533 23.4039 35.1664 19.3797 35.3561V34.4398H17.8381V35.3561C13.8139 35.175 9.83379 33.5476 6.75564 30.4694C3.67749 27.3912 2.05429 23.4154 1.8689 19.387H2.78517V17.8453H1.8689C2.05119 13.8121 3.67397 9.83002 6.75564 6.74835C9.82634 3.67764 13.7948 2.06378 17.809 1.87616ZM18.5071 5.49758C18.2757 5.523 18.0623 5.63416 17.9088 5.80914C17.7554 5.98413 17.6731 6.21024 17.6781 6.44293V17.1763C17.2058 17.4825 16.8927 18.0114 16.8927 18.6161C16.8927 19.5652 17.6598 20.3323 18.6089 20.3323C19.2136 20.3323 19.7425 20.0192 20.0487 19.5469H26.6662C26.7895 19.5487 26.912 19.5259 27.0264 19.4799C27.1409 19.4339 27.2451 19.3656 27.3329 19.279C27.4207 19.1924 27.4905 19.0892 27.5381 18.9754C27.5857 18.8616 27.6102 18.7395 27.6102 18.6161C27.6102 18.4928 27.5857 18.3706 27.5381 18.2568C27.4905 18.1431 27.4207 18.0399 27.3329 17.9532C27.2451 17.8666 27.1409 17.7984 27.0264 17.7524C26.912 17.7064 26.7895 17.6836 26.6662 17.6853H20.0487C19.9168 17.4819 19.7431 17.3082 19.5397 17.1763V6.44293C19.5425 6.31042 19.5171 6.17883 19.465 6.05696C19.4129 5.93509 19.3353 5.82576 19.2376 5.73626C19.1398 5.64676 19.0241 5.57917 18.8981 5.53801C18.7721 5.49685 18.6388 5.48306 18.5071 5.49758Z" fill="#F2B84B" fill-opacity="0.9"/>
</svg>
