<svg width="236" height="77" viewBox="0 0 236 77" fill="none" xmlns="http://www.w3.org/2000/svg">
<path fill-rule="evenodd" clip-rule="evenodd" d="M140.12 14.3582L140.424 13.5132C140.566 13.3254 140.77 13.2749 141.043 13.4193C142.512 13.9827 142.685 15.8677 143.131 17.1894C143.503 15.8244 144.395 13.5132 144.909 13.0437C145.045 12.9932 145.559 12.7621 145.932 12.9498C146.378 12.9932 146.719 13.5132 146.928 13.8888L146.719 14.8349C146.241 14.8349 146.173 13.8888 145.491 13.8888C145.318 13.8888 145.182 13.9827 145.009 14.0765L142.921 18.93L142.034 16.0555C141.657 15.3983 140.975 15.1166 140.188 14.6471C140.188 14.5966 140.188 14.4521 140.12 14.3582ZM144.327 50.6727L144.599 49.7771C144.772 49.6326 144.977 49.5893 145.25 49.6832C146.719 50.2465 146.855 52.1822 147.337 53.4966C147.71 52.081 148.602 49.7771 149.079 49.351C149.252 49.2571 149.766 49.0693 150.138 49.2137C150.584 49.3076 150.925 49.7771 151.135 50.2032L150.925 51.0916C150.448 51.0916 150.38 50.2032 149.661 50.2032C149.525 50.2032 149.388 50.2465 149.215 50.3404L147.128 55.2373L146.241 52.3194C145.864 51.6621 145.182 51.4238 144.395 50.9543C144.395 50.8605 144.395 50.7666 144.327 50.6727ZM218.827 30.0454L219.099 29.1931C219.272 29.0053 219.477 28.962 219.75 29.0992C221.219 29.6698 221.36 31.5476 221.837 32.9199C222.21 31.5043 223.102 29.1931 223.616 28.7237C223.752 28.6803 224.266 28.442 224.644 28.6298C225.084 28.6803 225.431 29.1931 225.635 29.5759L225.431 30.5148C224.948 30.5148 224.88 29.5759 224.161 29.5759C224.025 29.5759 223.857 29.6698 223.715 29.7637L221.633 34.61L220.741 31.7426C220.364 31.0782 219.645 30.7965 218.895 30.327C218.895 30.2765 218.895 30.1393 218.827 30.0454ZM154.45 27.402L154.723 26.5569C154.896 26.3691 155.101 26.3186 155.373 26.463C156.847 27.0336 156.984 28.9114 157.461 30.2765C157.839 28.8681 158.725 26.5569 159.239 26.0875C159.376 26.0441 159.89 25.8058 160.267 25.9936C160.713 26.0441 161.054 26.5569 161.259 26.9325L161.054 27.8786C160.577 27.8786 160.503 26.9325 159.785 26.9325C159.648 26.9325 159.48 27.0336 159.339 27.1275L157.256 31.9738L156.365 29.0992C155.992 28.442 155.274 28.1603 154.518 27.6909C154.518 27.6403 154.518 27.5031 154.45 27.402ZM132.184 18.3161L132.593 17.8467C133.243 18.1283 132.797 19.0239 132.934 19.6812C133.002 20.0134 133.311 20.6201 133.789 20.8151C133.962 20.8151 134.198 20.6201 134.339 20.5334C135.126 19.8689 134.749 18.5978 134.339 17.7528C134.339 17.6083 134.507 17.2833 134.612 17.045L135.74 19.7751C136.217 20.5334 136.459 20.1506 136.7 20.0134C137.209 19.45 136.459 18.2728 136.217 18.0344L136.595 17.1389C137.004 18.1283 137.828 19.6812 136.936 20.8151C136.836 20.909 136.7 21.0029 136.422 21.0968C135.74 21.1907 135.499 20.4395 135.021 20.0134C134.922 20.2951 134.953 20.6706 134.68 21.0968C134.612 21.1907 134.507 21.2845 134.339 21.3784C134.03 21.5662 133.584 21.6601 133.175 21.4723C132.184 21.0968 132.729 18.7422 132.184 18.3161ZM172.578 45.9636C199.534 52.5577 214.651 47.1409 219.923 42.6196C220.091 44.223 220.878 45.4436 222.11 46.007C222.624 46.1948 223.275 46.3392 223.957 46.2453C226.627 46.007 227.141 43.6091 228.405 42.0491C229.637 43.7969 229.669 44.6925 231.211 45.0175C231.825 45.4436 233.021 45.1114 233.671 44.3169C236.886 40.4529 235.622 32.4432 233.844 27.1275C234.012 27.0769 234.253 27.0769 234.253 27.0769C234.563 27.1275 234.867 27.7847 235.176 27.3586L232.68 21.8985L230.97 25.4302L232.134 27.2142C232.029 31.6921 234.495 36.2567 234.458 40.2146C234.321 40.5901 234.253 40.684 233.776 41.0668C233.057 41.4857 232.134 41.6302 231.211 41.0668C230.115 40.2651 229.087 39.0879 229.228 37.7228C229.087 37.7228 229.228 37.7662 229.087 37.7662C228.095 39.3695 227.55 41.3918 225.84 42.4752C224.539 42.7569 222.86 42.7135 221.937 41.6302C221.46 40.2651 221.082 39.839 221.392 38.3295C219.787 39.6512 216.671 43.7969 212.427 43.9341C210.717 44.9236 193.995 49.871 172.51 42.4752L169.331 35.8378C168.099 35.8378 167.312 36.7334 166.352 37.4412C163.341 40.0268 162.591 44.7358 163.037 48.5998C160.094 50.2032 156.674 51.4238 154.004 53.4533C150.925 55.5262 147.846 58.1118 145.045 60.4663C143.23 60.8419 141.074 61.0297 139.711 59.8091C139.538 59.5707 139.333 59.2457 139.06 58.8196C138.342 56.8912 138.992 54.7245 139.742 53.3522C138.237 56.0895 137.418 58.4874 139.128 61.3186C140.356 63.2469 142.889 63.5286 144.977 63.5286C147.642 62.2141 149.42 60.7046 151.854 58.9135C156.811 55.2373 163.21 49.8204 170.186 53.1644L170.559 49.6832C170.428 49.4954 170.354 49.4015 170.254 49.3076C168.922 48.6432 167.448 48.6432 166.079 47.9859C164.574 47.047 164.233 45.9131 164.06 44.223C164.71 42.7569 165.224 41.3918 166.525 39.8896C167.071 39.4634 168.03 39.0879 168.644 39.5573L170.254 44.0786C170.559 44.223 170.559 44.3603 170.664 44.6419C171.109 45.1114 171.519 45.4436 172.578 45.9636ZM111.658 35.5055L114.601 33.8083L116.552 48.0365C114.911 47.7548 114.564 46.9964 113.678 45.4942C111.863 42.1502 111.627 39.2251 111.658 35.5055ZM124.043 22.7435C124.347 22.8374 124.52 23.0252 124.693 23.4513C124.693 23.5452 124.693 23.733 124.52 23.8268L122.878 23.5452C123.287 22.9313 123.083 22.794 124.043 22.7435ZM125.511 23.5452C125.821 23.5452 126.062 23.6391 126.298 23.8774C126.23 24.3902 125.685 23.9713 125.307 23.8774C125.375 23.5885 125.307 23.6824 125.511 23.5452ZM168.644 61.8819L168.613 61.0297L182.088 54.3922L182.125 55.3817L168.644 61.8819ZM155.615 45.4942C156.265 43.2769 156.984 43.3274 157.666 42.2441C157.288 43.4213 155.919 45.3497 156.947 46.1009C157.052 46.1514 157.22 46.2453 157.424 46.2453C157.597 46.1009 157.771 45.9131 157.839 45.5881C157.975 46.1009 157.839 46.7653 157.424 47.1409C157.288 47.2348 156.916 47.2781 156.706 47.1842C155.851 47.047 155.683 45.8697 155.615 45.4942ZM217.494 54.2044C217.935 54.06 218.281 53.3089 218.895 53.1644C219.204 53.2583 219.613 53.5905 219.986 53.4028C220.091 53.3522 220.196 53.1644 220.364 52.9766C220.846 53.0705 220.982 53.6411 220.846 54.1539C220.741 54.2983 220.673 54.4356 220.505 54.58C219.886 55.1 219.031 53.9661 218.176 54.8617C217.767 55.5262 216.708 55.425 216.089 55.0061C215.611 54.6739 215.407 54.4861 214.929 54.3922C210.717 55.0061 210.035 59.9463 205.897 61.0802C205.656 61.1741 205.419 61.2174 205.419 61.2174C206.411 60.0907 207.775 59.2457 208.257 58.3501C210.445 54.2983 215.165 52.8827 217.494 54.2044ZM154.655 18.1283C154.45 18.0344 154.382 17.9406 154.209 17.7961C154.146 16.7633 154.209 16.2433 154.587 15.3044C155.274 14.9721 155.41 14.9721 155.992 15.066C156.333 15.1166 156.638 15.2538 156.847 15.4921L156.47 16.3372C156.297 15.9183 155.714 15.8677 155.274 16.0555C155.132 16.1061 154.828 16.2433 154.723 16.6694C155.851 17.5144 156.811 17.4711 158.552 16.6694L158.347 17.4205L154.209 19.45C154.277 18.6917 154.791 18.7422 154.655 18.1283ZM223.17 59.7152L236 53.5905V54.4356L222.797 60.748L223.17 59.7152ZM219.136 26.0875L220.196 22.4618L220.295 23.3574C220.914 23.6824 221.733 23.8268 222.147 24.6285C222.21 25.4736 221.837 26.0441 221.46 26.5569C221.051 26.9831 220.127 27.1708 219.577 26.7014C219.341 26.5569 219.204 26.4197 219.136 26.2319V26.0875ZM219.818 24.9102C220.295 24.7224 220.846 25.098 221.187 25.3363C221.46 25.6613 220.673 25.5241 220.505 25.618C220.295 25.5241 219.818 25.3363 219.818 24.9102ZM228.2 48.2243L231.893 50.7666L230.078 53.1644L226.453 50.716L228.2 48.2243ZM147.474 3.38733L149.32 0L152.263 9.36751C151.476 9.69974 151.371 8.05303 150.653 7.81469L151.34 44.1219C151.371 47.892 149.834 50.9038 149.561 50.6221L148.36 8.28414L147.474 3.38733ZM119.527 16.9005L145.932 5.0846L145.659 6.9191L119.836 18.5978L119.527 16.9005ZM116.138 63.9042C116.962 62.3514 115.797 61.6941 117.234 60.2352C117.407 58.8196 117.234 58.0685 117.129 56.9345L107.247 61.4124V59.8524L116.925 55.5262L116.788 50.6727C113.61 49.7265 111.863 47.1409 110.599 43.9341C109.812 40.5468 109.335 37.2028 110.085 34.0466L114.701 31.4104L112.104 9.64919L110.772 6.68076C110.531 6.11741 113.027 4.33347 114.328 2.35452L117.407 11.5848C116.72 11.6281 116.348 10.5448 115.865 10.1692C115.624 10.0753 115.456 10.2631 115.388 10.5448L117.575 29.7131L118.876 29.1931C120.586 28.3481 121.918 26.6508 123.424 25.3363C123.324 25.0041 122.946 25.1919 122.637 24.9608C120.586 22.8879 123.051 22.4185 123.151 21.0968L126.366 22.3679C126.849 22.599 127.221 23.4079 126.949 24.1591C126.849 24.6285 126.849 24.9608 126.608 25.098C125.957 25.5241 125.066 25.2424 124.279 25.2424C122.842 26.9831 121.509 28.7742 118.808 30.327L117.984 30.6593L118.876 43.8908C118.876 44.223 119.049 44.3169 119.254 44.1219C120.381 39.4634 120.791 33.671 124.043 30.5148C124.725 29.9948 125.134 29.4315 125.889 29.4315C126.062 29.4315 125.957 29.6192 126.23 29.7131C126.366 34.4727 122.705 40.5901 126.13 44.548C127.704 46.007 130.028 46.3898 131.979 45.7759C133.584 45.0175 135.158 43.7463 135.399 41.7241C135.913 37.535 135.672 33.4833 134.507 29.4315L135.672 26.0875C138.85 30.2765 136.013 37.7228 139.265 42.1935C140.461 43.2263 142.375 43.4213 144.085 42.8508C144.704 42.4752 145.045 42.1935 145.182 41.4857C143.435 37.2028 142.716 33.3894 142.27 29.7131C142.171 28.8176 141.248 28.442 141.143 27.6403L142.853 24.3902C143.094 25.7119 144.804 27.2142 145.423 28.962C145.491 29.1931 145.491 29.4315 145.491 29.4315C145.182 29.5254 145.113 29.2942 144.804 29.1498C144.804 29.1498 144.563 29.1498 144.395 29.1931C144.94 33.1077 146.105 38.0984 146.378 38.7556C147.437 43.0458 145.727 44.6925 144.804 45.5881C143.54 46.7148 141.279 47.1842 139.433 46.4837C137.487 45.7759 137.109 43.8908 136.632 41.9552C136.632 41.5363 136.632 41.3918 136.632 41.2546C136.632 40.9224 136.459 40.8285 136.217 40.9729C135.771 44.3169 134.785 47.8487 131.774 48.9754C129.414 49.871 126.849 49.4449 125.202 48.0365C122.705 45.9131 123.151 42.9447 123.083 39.9329C123.424 37.5784 124.179 35.7872 124.415 33.5771C124.347 33.3894 124.279 33.3894 124.043 33.3894C120.859 37.535 121.614 44.1219 119.353 49.2137C119.353 51.0916 119.353 52.8394 119.353 54.5367L127.531 51.3299L127.568 52.6011L119.422 56.0389C119.422 57.3101 119.663 58.6751 118.876 59.8524L117.439 62.0191L116.138 63.9042ZM92.5391 27.0336C92.2663 26.3691 92.4027 25.7119 92.9482 25.1486C93.2892 24.4408 94.1809 24.3902 95.104 24.0652C95.6496 23.9713 95.445 23.5885 95.104 23.4946C94.9677 23.3068 94.5533 23.119 94.1809 23.3068C94.1127 23.4079 94.0078 23.4946 93.8399 23.5885L94.3854 22.4618C94.7264 22.0862 95.3768 22.3174 95.7859 22.5557C96.4049 23.2129 96.9137 23.6824 96.9137 24.1591L96.2685 24.9102C95.104 24.9102 93.5619 25.0041 92.8485 26.0875C94.1127 28.962 95.5814 32.5371 95.0359 35.975C94.9677 33.0138 93.7717 29.8576 92.5391 27.0336ZM87.9179 72.9034C87.8497 72.3328 88.0543 71.9572 88.4319 71.5311C88.6732 71.5311 88.9145 71.6322 89.0509 71.7694C89.9059 72.5206 89.3551 74.124 88.9827 75.0701C88.6732 75.6334 88.4319 76.1535 88.2588 76.4785C88.5001 75.489 89.6961 73.7989 88.605 72.665C88.1907 72.2894 87.9179 73.2284 87.9179 72.9034ZM85.8355 26.6508C86.1397 26.5136 86.5541 27.402 87.236 27.5031C86.9265 28.0159 86.2079 27.6403 85.6991 27.5031C85.4893 27.2647 85.6991 26.9831 85.8355 26.6508ZM85.9719 24.6719C86.0715 24.8163 86.1764 25.2858 86.1764 25.4302C86.2079 26.0441 86.7219 26.138 87.3357 26.0441C88.2956 26.5569 87.9179 28.5864 86.5174 29.1931C85.9037 29.1931 85.2847 29.0559 84.9071 28.3987C84.5661 27.0769 85.7306 25.7552 85.9719 24.6719ZM75.3657 5.03404C75.3657 4.94015 75.5021 4.56458 75.5703 4.3768C82.8928 8.80416 92.5391 3.29343 100.507 3.33677C100.029 3.38733 102.458 5.31572 96.9819 8.1397C98.2146 7.01299 98.8335 6.07408 99.4839 4.99071C100.748 3.57511 98.524 4.61514 96.5413 4.94015C94.0445 5.41683 91.1018 6.35575 88.3637 6.9191C84.8389 7.34523 81.592 7.67024 78.1353 7.01299C78.686 8.09636 78.8906 9.98142 77.8992 11.5342C78.1038 8.3347 77.1439 6.78187 75.3657 5.17849V5.03404ZM71.7412 23.8268C73.4144 24.4408 75.2975 26.0875 75.5021 28.2542C75.8798 30.2765 75.5021 32.3493 75.0562 34.0033C75.1979 31.3165 75.4706 27.597 73.1102 25.7119C72.528 25.2424 72.2552 25.098 71.7045 24.9608L71.7412 23.8268ZM128.417 6.07408C129.204 5.46017 130.028 5.22183 130.951 4.94015C131.124 4.94015 131.601 5.17849 131.192 5.5035L128.417 6.07408ZM69.7899 6.39909C70.5452 5.7924 71.4002 5.5974 72.3234 5.31572C72.4913 5.31572 72.9738 5.5035 72.5594 5.88629L69.7899 6.39909ZM68.8667 41.0668C77.3485 38.474 86.1397 40.359 94.7631 40.4962L81.4189 47.0903C78.3398 44.5047 73.2099 43.5586 69.108 41.5796C68.8667 41.4424 68.7303 41.2979 68.7303 41.2979L68.8667 41.0668ZM66.5063 14.221C66.7476 12.856 67.6708 11.6281 68.0484 11.0648C67.7022 12.0976 67.2616 13.0871 67.0885 14.1271C67.12 14.741 67.4295 14.9216 67.8753 14.9216C68.1166 14.9216 68.1848 14.6905 68.4208 14.5027C68.4576 14.8782 68.4576 15.3044 68.1848 15.6294C67.9802 16.0555 67.2616 15.8677 66.9521 15.6294C66.7109 15.4921 66.4066 14.6471 66.5063 14.221ZM63.4273 22.8374L100.439 9.98142C100.78 10.2125 100.37 11.6281 100.265 11.8159L64.4186 24.253L65.9608 26.0441V26.9325L63.6685 26.138C62.7086 25.6613 61.6176 24.7224 63.4273 22.8374ZM121.373 8.28414C121.441 7.6269 121.714 6.87577 122.333 6.54353C123.083 6.35575 123.801 6.26186 124.656 6.54353C124.725 6.44964 124.898 6.30519 124.966 6.16797C125.102 5.27238 124.761 3.81345 124.211 3.01176L124.656 2.2534C125.58 3.14899 125.066 5.41683 126.503 5.98018C126.776 6.07408 127.122 6.26186 127.122 6.26186L128.695 4.94015C129.482 4.47069 130.71 3.2501 131.774 4.00123C132.047 4.13846 132.184 4.28291 132.351 4.47069C132.525 4.70903 132.525 5.5035 131.843 6.07408C130.542 7.06355 128.9 6.87577 127.599 7.06355C127.221 7.10688 126.881 7.6269 126.571 7.77135C126.435 7.90858 126.776 7.29467 126.776 7.06355C126.366 6.58687 125.821 6.73132 125.344 6.26186C125.239 6.68076 124.898 7.34523 124.179 7.57634L122.81 7.34523C122.16 7.10688 121.546 8.42859 121.373 8.28414ZM62.7454 8.65971C62.8135 8.00247 63.0863 7.25133 63.6685 6.9191C64.4553 6.68076 65.1372 6.63743 65.9922 6.9191C66.0971 6.82521 66.265 6.63743 66.3384 6.54353C66.4748 5.64795 66.1339 4.13846 65.5831 3.33677L65.9922 2.63619C66.9521 3.53178 66.4066 5.7924 67.8753 6.35575C68.1166 6.39909 68.489 6.58687 68.489 6.58687L70.0627 5.31572C70.8495 4.80293 72.0821 3.57511 73.1417 4.3768C73.4144 4.47069 73.5561 4.65848 73.6924 4.80293C73.897 5.0846 73.897 5.88629 73.1784 6.39909C71.909 7.43912 70.2357 7.25133 68.9716 7.43912C68.5939 7.48245 68.253 7.95913 67.9435 8.1397C67.8071 8.28414 68.1481 7.6269 68.1481 7.43912C67.7022 6.96966 67.1882 7.10689 66.7109 6.58687C66.5745 7.06355 66.265 7.72079 65.5516 7.95913L64.1459 7.72079C63.5322 7.48245 62.8817 8.80416 62.7454 8.65971ZM52.3123 49.1632L54.1587 46.6209L57.6154 48.4554L55.9736 51.3805L52.1392 49.4449L52.3123 49.1632ZM52.071 76.7601L52.5169 75.8212C57.479 73.1345 63.2594 70.6427 69.3126 68.801L68.8352 69.6027C62.8817 71.6755 57.0331 73.8928 52.1392 76.9479L52.071 76.7601ZM50.2928 33.0138L52.1759 34.0899L50.4292 35.5055C50.4974 35.5055 50.2614 33.1077 50.2928 33.0138ZM50.0568 59.1446C49.6109 57.5484 51.4206 57.079 52.1392 56.0389C52.1392 55.62 51.216 55.7573 50.6338 55.7573L51.1164 54.8617H52.9627C53.5764 55.0061 52.9942 55.9451 52.6533 56.2267C51.9714 57.079 51.0115 57.3101 50.7754 58.1623C51.6304 59.1952 55.3913 58.6318 56.2096 57.8734C55.9736 58.8629 54.636 59.3829 53.6446 59.5707C52.7215 59.6646 50.7754 59.9968 50.0568 59.1446ZM44.2712 64.1425L46.2224 61.8313L50.361 63.8609L48.5514 66.3093L44.2712 64.1425ZM44.1033 64.4242L42.4248 66.6848L38.5589 64.5614L40.3738 62.3947L44.1033 64.4242ZM37.9085 45.3497C38.0134 45.1619 38.0134 44.9236 38.1498 44.6925C39.8598 45.3931 40.7148 47.0903 41.0925 49.1632C41.0243 50.1527 41.3337 51.0916 40.8197 51.756C41.0925 49.7771 40.1693 47.4659 38.8002 46.3898C38.2862 45.9636 38.0134 45.8697 37.8403 45.4436L37.9085 45.3497ZM94.2123 48.3182L94.5218 47.892C95.2037 48.1737 94.7264 49.026 94.8995 49.6832C94.9677 50.0588 95.2719 50.6727 95.7545 50.8099C95.8909 50.8099 96.1636 50.6221 96.2685 50.5282C97.0553 49.9143 96.6777 48.5998 96.2685 47.7981C96.2685 47.6104 96.4364 47.2781 96.5413 47.047L97.7058 49.8204C98.1831 50.5282 98.4191 50.1527 98.6289 50.0588C99.1745 49.4954 98.4191 48.3182 98.1831 48.0365L98.524 47.1409C98.9332 48.1737 99.7882 49.7265 98.865 50.8605C98.7968 50.9543 98.6289 51.0482 98.3877 51.0916C97.7058 51.1855 97.4645 50.4849 96.9819 50.0588C96.8822 50.3404 96.9137 50.716 96.6095 51.0916C96.5413 51.1855 96.4364 51.2866 96.2685 51.4238C95.9905 51.6116 95.5132 51.6621 95.104 51.5177C94.1441 51.0916 94.7631 48.7371 94.2123 48.3182ZM37.3315 21.6168L37.6358 21.0968C38.3229 21.429 37.8403 22.274 38.0134 22.9313C38.0816 23.3068 38.3911 23.9207 38.8684 24.1085C39.0048 24.1085 39.2776 23.8774 39.4139 23.8268C40.206 23.1696 39.8283 21.8479 39.4139 21.0462C39.4139 20.8584 39.5556 20.5334 39.6552 20.2951L40.8197 23.0757C41.297 23.8268 41.5383 23.4079 41.7744 23.3068C42.2884 22.7435 41.5383 21.5662 41.297 21.2845L41.638 20.389C42.0524 21.3784 42.9074 22.9818 41.9842 24.1085C41.916 24.1591 41.7744 24.253 41.5016 24.3902C40.8197 24.4408 40.5784 23.733 40.1011 23.3068C39.9962 23.5885 40.0329 23.9713 39.7601 24.3902C39.6552 24.4408 39.5556 24.5346 39.4139 24.6719C39.1097 24.8163 38.6324 24.9102 38.218 24.7658C37.2633 24.3469 37.877 21.9418 37.3315 21.6168ZM35.2439 6.82521C35.8261 6.49298 37.2633 9.08584 37.5676 10.5014C37.5676 10.5448 37.9452 8.24081 39.2094 6.73132C39.3458 6.54354 39.7601 6.54353 40.1326 6.54353C40.5102 6.58687 40.9194 7.01299 41.0557 7.48245C41.0925 7.81469 40.9876 8.05303 40.7515 8.19025C40.6151 8.19025 40.1011 8.09636 40.0329 7.57634L39.4139 7.48245C38.1183 8.47193 38.218 10.8264 37.4994 12.4804L36.1671 9.17973L34.8662 8.47193C34.8662 7.86524 34.5567 7.43912 35.2439 6.82521ZM26.7621 29.0053C26.8303 27.7342 26.9981 27.2647 27.444 26.3691L27.5804 27.1275C27.5804 27.4525 26.9667 29.9948 27.2709 30.1393C27.444 30.1393 27.5804 30.1393 27.6853 29.9948C27.8531 30.2765 27.6853 30.5148 27.5804 30.8471C27.5804 30.8471 27.444 31.0782 27.2709 31.1287C27.1345 31.1287 26.9667 31.0782 26.7936 30.941C26.5208 30.1826 26.6939 29.0053 26.7621 29.0053ZM23.51 55.4756L33.4657 51.4238L33.3293 52.1316L23.4051 56.1834L23.51 55.4756ZM16.7015 18.9734L25.734 14.2643C23.2372 13.2315 20.4309 14.1704 17.7296 14.1704L19.1301 11.1081C21.7685 10.7326 25.2567 10.3137 27.8899 11.3465C28.1259 13.6576 26.3477 16.1999 24.2968 17.1894L16.7015 18.9734ZM76.6299 61.4124C76.4935 60.5602 74.7835 59.4335 79.6407 58.4874C79.882 58.3935 80.0498 58.3501 79.882 58.0685L78.9588 57.5484C78.686 57.5484 78.6493 57.6857 78.3084 57.8734C78.3766 57.1223 78.7857 56.7973 79.5043 56.559C80.4642 56.559 81.1146 57.3101 81.4189 58.2562L81.0465 59.2457C80.2911 59.6213 78.7542 59.4335 77.9989 59.8524C76.803 60.4663 79.6774 63.7164 78.5497 65.6954C78.172 63.6225 77.5583 62.3947 76.6299 61.4124ZM16.5651 59.3396C16.4287 58.4874 14.7555 57.404 19.6127 56.4651C19.8172 56.3712 19.9851 56.3206 19.8172 55.9956L18.894 55.5262C18.616 55.5262 18.5846 55.6634 18.2436 55.8512C18.3118 55.1 18.721 54.7678 19.4396 54.5367C20.4309 54.5367 21.0446 55.2878 21.3541 56.2267L20.9817 57.2162C20.2264 57.5918 18.6895 57.404 17.9341 57.7796C16.7697 58.3935 19.6127 61.6941 18.4849 63.6731C18.1072 61.6002 17.4883 60.3724 16.5651 59.3396ZM92.6387 17.2833L92.9482 16.3877C93.0846 16.2433 93.2892 16.1999 93.5619 16.3372C95.0359 16.9005 95.1722 18.7856 95.6496 20.1073C96.0272 18.6917 96.9137 16.3877 97.3963 15.9616C97.5641 15.8677 98.0782 15.6799 98.4558 15.8244C98.9017 15.9183 99.2426 16.3877 99.4472 16.8066L99.2426 17.7528C98.7653 17.7528 98.6971 16.8066 97.9785 16.8066C97.8054 16.8066 97.7058 16.9005 97.5327 16.9511L95.445 21.8479L94.5533 18.93C94.1809 18.3161 93.4937 18.0344 92.7069 17.565C92.7069 17.4711 92.7069 17.3772 92.6387 17.2833ZM15.1646 36.4011L15.4741 35.5055C15.6419 35.3683 15.815 35.3178 16.1245 35.4622C17.5932 36.0256 17.7296 37.9106 18.2069 39.2757C18.5846 37.8167 19.4396 35.5055 19.9851 35.13C20.1215 35.0361 20.6355 34.7977 21.0132 34.9422C21.459 35.0361 21.8 35.5055 22.0046 35.9317L21.8 36.8706C21.3227 36.8706 21.2177 35.9317 20.5358 35.9317C20.3995 35.9317 20.2264 36.0256 20.09 36.1194L18.0023 40.9729L17.1159 38.0478C16.7382 37.4412 16.0196 37.1523 15.2643 36.6828C15.2643 36.6395 15.2643 36.495 15.1646 36.4011ZM11.9492 63.9547C12.6678 60.5169 13.8637 56.559 16.1245 54.1539C20.0218 51.0916 24.4699 47.047 30.1139 48.3182C31.9236 48.7371 33.2611 49.7265 34.798 50.1093C35.8261 49.4015 35.5848 47.2348 35.2753 46.0575C32.8467 44.3169 28.5718 44.3169 27.5804 40.7346C27.9213 38.6617 29.9775 37.535 31.5511 36.7334C32.1648 36.4517 32.7104 36.4011 33.1562 36.4011L35.1757 41.7241C36.5447 43.7463 39.4507 43.6525 41.8111 43.0891C44.0666 42.2441 45.6769 41.3918 47.623 40.4962L48.3101 49.7265C39.8598 55.1939 27.4073 54.7678 21.9049 65.1753C20.2631 67.1037 17.2155 68.6132 14.5142 67.7682C14.2047 67.5804 14.0368 67.4865 13.7955 67.436C12.8042 66.6848 12.2587 65.5076 11.9492 63.9547ZM10.2707 28.1098L43.348 14.741C43.7256 14.9721 43.4529 15.9616 43.3847 16.1999L9.9979 29.2437C9.52057 30.2765 11.9806 30.5148 12.1223 30.5582L12.2901 31.3599L9.38419 30.6593C8.62886 29.2942 9.316 28.5864 10.2707 28.1098ZM7.22834 49.9649C7.25981 48.5059 8.59738 47.4226 8.80195 46.6209C8.62886 47.567 8.62886 47.0903 7.97843 49.2137C7.84205 50.2465 8.25643 50.2032 8.39281 50.2465C8.56067 50.2465 8.93833 50.2465 9.00652 49.9649C9.27928 50.391 9.00652 50.9543 8.62886 51.2866C8.461 51.3805 8.15153 51.3805 7.94696 51.2866C7.33325 50.8099 7.12343 50.2465 7.22834 49.9649ZM0.0107098 54.5367C-0.19386 50.0082 2.5757 46.3392 4.59516 43.183C2.81698 42.1935 1.85708 39.8896 2.09837 37.2967C2.5757 34.0466 3.56707 31.6415 5.0043 28.962C5.75964 27.5031 6.26844 26.2753 7.09196 24.9608C7.63748 27.0336 5.75964 28.7237 5.14068 30.7026C4.04965 33.151 3.12121 36.0256 4.18603 38.3295C4.83121 39.4634 6.13206 40.1207 7.46963 40.0268L9.11143 36.2567C10.1028 37.2028 9.34747 38.9001 8.93833 40.2651C8.28791 41.3485 7.70567 42.6196 6.54644 43.183C4.04965 43.6091 3.46741 46.2453 2.09837 48.0365C1.17518 50.2032 0.147089 52.9333 1.00209 55.0061C1.65251 56.1834 2.71208 56.9345 3.94474 57.1729C13.2133 56.0389 16.9795 46.527 26.1432 44.548C25.734 40.4529 27.3391 36.0256 30.7958 34.3788C32.0285 33.7144 33.2244 33.3894 34.5253 32.8188C34.6984 32.8188 34.8347 32.9199 34.9711 33.0571C36.1671 34.9422 35.3121 38.3295 37.7774 39.5573C41.4019 40.2651 44.717 38.3295 47.3502 36.9211L46.9096 32.3999C45.572 32.1182 43.5578 30.8471 42.2202 31.8799C39.5189 32.5877 36.7126 31.6415 34.0479 31.6415L35.6897 28.7237C39.0415 27.2142 43.007 27.4525 46.6683 28.6298L44.717 5.74184L46.3588 2.5423C47.046 3.43066 47.282 4.80293 48.0006 5.74184C48.6878 7.77135 49.847 9.4614 50.0201 11.5848C49.1284 11.722 48.992 10.6892 48.2734 10.1692C48.1055 10.1692 48.0006 10.1692 47.901 10.357L49.6791 29.482L57.6154 31.786L56.4509 7.95913L55.8005 4.80293L57.82 1.97173C59.0159 4.56458 60.1804 8.7536 60.5895 11.9604C59.8709 11.9098 59.7345 11.0142 59.0159 10.7831L60.6577 32.3999L67.634 33.0571C68.2845 33.0571 67.9802 33.8083 67.8071 34.0466C67.4295 34.7977 66.8158 35.2239 66.543 35.9317L61.1036 35.6933C60.28 42.1935 63.464 50.7666 59.8709 57.2668L58.334 36.1628C56.1782 35.3683 52.8945 37.6289 50.8436 38.6184C50.8436 43.703 51.3209 50.2971 47.1141 53.7783C44.7852 56.0389 40.5784 56.2773 37.7774 57.8734L35.2753 64.5614C34.3207 66.3526 34.9711 70.4044 36.1671 71.6755C38.6639 74.124 42.5297 73.8423 45.7451 72.5206C53.5764 68.7577 59.189 60.6108 66.5063 55.9451C67.9802 54.7245 69.2758 54.1539 70.6816 53.215C73.042 51.7055 75.4339 50.7666 77.6579 49.2137C75.2608 46.7148 69.2758 47.1842 67.1567 43.8908C66.3384 41.818 66.884 39.4634 68.1166 38.0984C79.2316 34.0466 91.6473 37.3906 102.972 37.7662C103.245 37.8601 103.486 37.9539 103.486 37.9539L102.526 41.0163L96.3315 43.6091L84.2252 49.9649C84.0521 50.5788 84.8389 50.8605 85.1483 51.236C86.1082 52.4638 86.7587 54.4356 86.7587 56.1834C86.1397 57.2668 84.6028 56.2773 83.5065 56.1328C81.7284 55.2878 80.7003 54.06 80.0498 52.3699L74.8884 54.5367C72.7693 58.2057 69.5171 63.5286 71.1589 68.5193C72.3916 70.7366 74.3376 71.2061 76.5984 70.9244C84.4979 62.9653 93.735 56.0389 105.673 53.3089C106.119 52.7888 106.492 52.6516 106.597 52.1316L101.398 8.37804L100.643 5.98018L103.245 2.77342C104.645 5.46017 106.256 8.42859 106.906 11.8159C106.733 11.9098 106.597 11.9098 106.324 11.722L105.196 10.4509C104.955 10.357 104.782 10.5014 104.714 10.8264L108.338 41.4424C108.852 45.682 108.511 47.567 108.065 50.5788C107.21 53.9661 105.878 56.4145 103.313 57.5484C90.7242 58.444 85.7673 70.1227 75.8116 73.3728C73.042 72.8022 71.1589 70.9244 70.3039 68.7577C69.0713 64.092 71.7045 59.8091 73.1784 55.9451C69.963 56.6023 67.2616 59.5707 64.3872 61.5063C56.4509 66.916 51.3209 77.1429 40.2689 76.9985C37.2633 76.4351 35.9258 74.969 34.5253 72.665C33.5654 69.7471 33.5654 66.6848 34.3889 63.9547L36.5762 58.3501C33.3608 58.444 30.2503 60.4663 27.9895 62.4958C24.4332 66.0276 21.9364 71.4444 16.4654 70.7366C14.105 69.9783 12.736 68.6638 11.7446 66.5909C10.7165 63.1964 12.0488 59.7152 13.1451 56.7973C13.0769 56.6529 13.0769 56.7467 12.8409 56.7467C10.7165 58.769 7.74239 60.6108 4.49026 59.9968C2.26622 59.3396 0.933896 57.5484 0.320188 55.7139C0.320188 55.2373 0.0107098 54.8184 0.0107098 54.5367Z" fill="#F2B84B"/>
</svg>
