<svg width="20" height="19" viewBox="0 0 20 19" fill="none" xmlns="http://www.w3.org/2000/svg">
<g clip-path="url(#clip0_233_1330)">
<path d="M16.6041 10.2601C16.5288 11.6207 16.0509 12.9309 15.2282 14.0323C14.4055 15.1337 13.2733 15.9792 11.9684 16.4665C10.6634 16.9539 9.24163 17.0622 7.87489 16.7784C6.50815 16.4947 5.25496 15.831 4.26681 14.8675C3.27867 13.9041 2.59787 12.6822 2.30671 11.3495C2.01555 10.0168 2.1265 8.63045 2.62615 7.35795C3.1258 6.08545 3.99275 4.98131 5.12221 4.17901C6.25167 3.37671 7.59528 2.91059 8.99061 2.837C9.31611 2.81975 9.4865 3.19749 9.3137 3.4663C8.73575 4.36797 8.48828 5.43404 8.61166 6.49051C8.73505 7.54699 9.22202 8.53149 9.99309 9.28336C10.7642 10.0352 11.7738 10.5101 12.8573 10.6304C13.9407 10.7507 15.034 10.5094 15.9587 9.94583C16.2352 9.77734 16.6218 9.94269 16.6041 10.2601Z" stroke="#F2B84B" stroke-width="2.20731" stroke-linecap="round" stroke-linejoin="round"/>
</g>
<defs>
<clipPath id="clip0_233_1330">
<rect width="19.2889" height="18.8085" fill="white"/>
</clipPath>
</defs>
</svg>
