<svg width="401" height="374" viewBox="0 0 401 374" fill="none" xmlns="http://www.w3.org/2000/svg">
<path fill-rule="evenodd" clip-rule="evenodd" d="M392.114 242.919C392.114 238.235 392.214 233.7 392.049 229.176C392.001 227.881 391.173 226.613 390.711 225.33C390.248 224.055 389.384 222.772 389.396 221.497C389.485 208.923 389.774 196.357 389.879 183.784C389.899 181.65 390.277 180.129 392.166 178.686C395.16 176.409 394.827 174.451 391.358 172.704C389.473 171.752 388.757 170.559 388.793 168.511C388.91 162.279 388.697 156.039 388.942 149.811C389.034 147.463 389.404 144.698 390.763 142.923C392.813 140.24 392.958 137.678 391.555 135.178C390.168 132.705 388.142 130.513 386.124 128.45C384.4 126.684 383.592 121.446 385.393 119.769C387.792 117.538 386.281 116.356 384.251 115.764C382.101 115.136 379.733 115.222 377.494 114.812C376.529 114.637 375.034 114.18 374.829 113.537C372.124 105.008 367.296 96.9735 368.176 87.5706C368.325 85.9755 368.2 84.3531 368.2 82.5318C365.021 82.875 363.538 82.0287 362.681 79.3455C358.119 65.0286 353.315 50.7858 348.592 36.5157C347.965 34.6164 346.856 32.7171 346.832 30.81C346.751 25.4475 347.298 20.085 347.25 14.7225C347.218 11.4816 346.478 8.2485 346.176 5.0037C346.028 3.3501 346.152 1.6692 346.152 0C345.819 0.0039 345.485 0.0117007 345.155 0.0156007C345.155 3.5724 345.24 7.1331 345.131 10.686C345.035 14.0088 344.762 17.3238 344.512 20.6388C344.147 25.4943 344.548 30.576 343.182 35.1546C338.937 49.3311 333.985 63.3087 329.366 77.3838C328.393 80.3556 327.991 83.7174 322.886 82.4577C324.032 90.7179 322.79 98.1864 319.695 105.39C318.73 107.644 317.846 109.957 317.251 112.316C316.744 114.313 315.767 114.906 313.673 114.937C311.314 114.972 308.902 115.421 306.651 116.111C305.907 116.337 304.91 118.166 305.188 118.767C307.812 124.531 307.632 125.869 303.214 130.307C302.185 131.336 301.152 132.471 300.533 133.747C299.267 136.352 298.242 138.93 299.99 141.956C301.264 144.167 302.289 146.804 302.418 149.3C302.752 155.743 302.418 162.213 302.587 168.663C302.639 170.785 301.835 171.838 299.998 172.762C296.702 174.42 296.453 176.545 299.407 178.842C301.015 180.094 301.57 181.327 301.57 183.312C301.582 192.328 301.823 201.337 301.956 210.354C302.02 214.796 303.134 219.593 301.775 223.595C299.906 229.082 299.833 234.445 299.773 239.963C299.765 240.622 299.789 241.792 299.54 241.862C296.043 242.849 294.403 245.166 293.772 248.527C293.478 250.107 292.377 251.542 292.063 253.122C291.681 255.001 291.754 256.967 291.589 259.568C293.285 261.6 292.996 262.142 288.618 262.899C288.618 258.114 288.618 253.379 288.618 248.586C281.5 248.586 274.682 248.586 267.471 248.586C267.471 251.523 267.471 254.249 267.471 257.326C263.809 257.326 260.541 257.326 256.995 257.326C256.995 261.359 256.999 265.013 256.991 268.671C256.983 272.672 256.706 272.883 252.216 272.083C252.216 270.913 252.216 269.704 252.216 268.492C252.216 250.345 252.224 232.198 252.188 214.052C252.188 213.014 252.107 211.801 251.565 210.986C250.737 209.769 249.471 208.825 247.802 207.195C243.98 207.195 239.092 207.195 234.103 207.195C233.874 208.381 233.677 209.422 233.396 210.885C221.349 210.885 209.378 210.885 197.186 210.885C197.186 229.784 197.186 248.239 197.186 266.842C196.033 267.068 195.076 267.247 193.673 267.517C193.673 259.841 193.673 252.451 193.673 244.998C185.292 244.998 177.317 244.998 169.322 244.998C168.144 248.496 170.073 252.287 168.208 255.395C166.086 253.531 164.406 251.667 162.344 250.364C160.197 249.011 157.685 248.204 155.156 247.085C154.658 243.454 154.131 239.632 153.605 235.802C153.484 235.802 153.364 235.802 153.243 235.802C152.696 239.741 152.154 243.684 151.619 247.545C144.158 249.144 135.496 242.65 135.142 235.455C134.99 232.342 134.764 229.23 134.443 226.134C134.025 222.097 131.404 219.227 127.24 218.205C125.157 217.69 123.039 217.339 120.631 216.856C121.262 209.687 119.184 202.507 123.119 195.811C124.044 194.243 124.241 192.204 124.47 190.347C124.566 189.567 123.895 187.992 123.529 187.976C120.028 187.847 120.736 185.437 120.716 183.421C120.691 180.414 120.462 177.384 120.776 174.408C121.11 171.284 121.901 168.199 122.637 165.126C123.348 162.154 124.233 159.217 125.145 155.883C120.744 155.953 120.474 153.656 120.671 150.813C120.86 148.04 120.462 145.22 120.776 142.475C121.146 139.242 121.93 136.048 122.673 132.865C123.365 129.901 124.233 126.976 125.017 124.055C123.2 123.427 122.038 123.025 120.876 122.628C121.19 122.569 121.507 122.511 121.825 122.452C119.944 100.226 118.063 78.0039 116.181 55.7778C115.771 55.7778 115.357 55.7778 114.943 55.7778C112.849 78.0312 108.58 100.105 110.015 122.507C108.443 123.057 107.278 123.462 105.702 124.016C106.309 126.547 106.434 129.234 107.583 131.41C109.963 135.899 109.991 140.576 109.874 145.361C109.838 146.917 109.87 148.477 109.87 150.033C109.866 154.502 109.866 154.502 105.714 156.558C106.309 158.913 106.482 161.589 107.639 163.773C109.967 168.156 109.971 172.731 109.874 177.399C109.846 178.846 109.899 180.293 109.862 181.74C109.786 184.684 111.048 188.347 105.585 188.288C107.121 196.708 112.117 204.165 108.966 213.626C107.644 212.152 106.494 211.115 105.646 209.882C102.748 205.686 100.496 200.92 96.9873 197.293C91.613 191.732 84.3976 188.963 76.6717 187.539C75.1844 187.266 73.3314 186.962 72.4269 185.991C68.9218 182.228 66.8315 177.813 66.9561 172.548C67.0003 170.758 66.4697 168.952 66.2004 167.15C65.714 167.727 65.6939 168.273 65.6135 168.812C64.7131 174.743 65.0387 181.054 60.1307 185.757C59.375 186.482 58.6032 187.465 57.6706 187.695C46.2868 190.523 37.0455 196.065 31.3215 206.415C30.9235 207.137 29.2795 207.379 28.1781 207.476C27.748 207.515 26.7792 206.513 26.8074 206.025C27.0887 200.772 25.6658 195.445 28.2746 190.277C29.7217 187.418 30.1317 184.06 31.1888 180.281C26.534 180.835 26.5823 178.452 26.6747 175.921C26.7672 173.367 26.7752 170.8 26.6747 168.242C26.518 164.319 26.8998 160.61 28.7609 156.944C30.0151 154.467 30.2362 151.492 30.9075 148.785C29.179 148.153 28.0253 147.728 27.1289 147.4C25.4085 136.691 27.2938 126.551 31.2491 116.653C29.3076 115.967 28.1499 115.557 27.338 115.272C26.6546 103.763 26.2044 92.4378 25.2437 81.1551C24.291 69.9348 22.8198 58.7535 21.5737 47.5566C20.6854 51.0081 20.2311 54.4206 19.8975 57.8448C18.1731 75.5469 14.9493 93.1398 15.8416 111.025C15.9783 113.786 15.8778 116.197 11.6772 116.275C12.2118 118.689 12.2078 121.072 13.2409 122.912C16.3883 128.524 15.7733 134.527 15.8175 140.49C15.8215 141.27 15.7371 142.058 15.8336 142.826C16.2155 145.813 15.9059 148.364 11.3677 148.645C12.5214 152.307 13.5343 155.567 14.5794 158.824C14.9493 159.982 15.713 161.109 15.7452 162.263C15.8778 167.493 15.8577 172.727 15.7612 177.957C15.7492 178.663 15.0658 179.899 14.5634 179.965C11.018 180.426 11.5767 182.805 12.5053 184.645C16.5089 192.586 15.8537 201.045 15.8256 209.453C15.8175 211.567 15.8537 213.685 15.8135 215.799C15.8014 216.625 15.6286 217.444 15.5361 218.232C11.3757 218.248 9.59904 216.005 9.25737 213.178C7.98312 214.477 6.8777 216.544 5.23767 217.093C2.98664 217.842 1.25817 218.95 0 220.397V373.983C133.989 373.983 267.981 373.983 401.97 373.983V242.919C398.834 242.919 395.599 242.919 392.114 242.919ZM229.706 220.849C233.665 220.849 237.624 220.849 241.829 220.849C241.829 222.795 241.829 224.624 241.829 226.723C237.91 226.723 233.971 226.723 229.706 226.723C229.706 224.897 229.706 222.982 229.706 220.849ZM206.267 220.83C210.347 220.83 214.294 220.83 218.451 220.83C218.451 222.858 218.451 224.695 218.451 226.867C214.254 226.867 210.399 226.867 206.267 226.867C206.267 224.843 206.267 222.94 206.267 220.83ZM206.211 230.467C210.367 230.467 214.226 230.467 218.37 230.467C218.37 232.323 218.37 234.133 218.37 236.246C214.491 236.246 210.467 236.246 206.211 236.246C206.211 234.425 206.211 232.604 206.211 230.467ZM218.447 240.431C218.447 242.373 218.447 244.191 218.447 246.23C214.455 246.23 210.512 246.23 206.275 246.23C206.275 244.456 206.275 242.638 206.275 240.431C210.339 240.431 214.282 240.431 218.447 240.431ZM206.146 250.275C210.291 250.275 214.31 250.275 218.495 250.275C218.495 252.197 218.495 253.933 218.495 255.918C214.346 255.918 210.327 255.918 206.146 255.918C206.146 253.999 206.146 252.264 206.146 250.275ZM218.519 265.668C214.471 265.668 210.443 265.668 206.194 265.668C206.194 263.804 206.194 261.99 206.194 259.962C210.218 259.962 214.162 259.962 218.519 259.962C218.519 261.912 218.519 263.656 218.519 265.668ZM241.885 265.75C237.757 265.75 233.81 265.75 229.633 265.75C229.633 263.851 229.633 262.025 229.633 259.974C233.653 259.974 237.693 259.974 241.885 259.974C241.885 261.932 241.885 263.749 241.885 265.75ZM241.885 255.895C237.789 255.895 233.778 255.895 229.581 255.895C229.581 254.046 229.581 252.318 229.581 250.302C233.673 250.302 237.685 250.302 241.885 250.302C241.885 252.154 241.885 253.882 241.885 255.895ZM241.926 246.199C237.878 246.199 233.838 246.199 229.601 246.199C229.601 244.327 229.601 242.51 229.601 240.478C233.645 240.478 237.588 240.478 241.926 240.478C241.926 242.455 241.926 244.202 241.926 246.199ZM241.926 236.266C237.898 236.266 233.866 236.266 229.609 236.266C229.609 234.433 229.609 232.612 229.609 230.576C233.605 230.576 237.556 230.576 241.926 230.576C241.926 232.502 241.926 234.246 241.926 236.266Z" fill="black"/>
</svg>
