<svg width="36" height="36" viewBox="0 0 36 36" fill="none" xmlns="http://www.w3.org/2000/svg">
<path d="M18.1414 35.3229H11.932C11.6439 35.3229 11.4104 35.0893 11.4104 34.8012V28.9024C11.4104 28.6249 11.6271 28.3979 11.9005 28.3817C11.869 28.2055 11.8531 28.0262 11.8531 27.8443C11.8531 26.8282 12.604 26.2373 13.3302 25.6657C13.7981 25.2975 14.2819 24.9166 14.6087 24.4079C14.7047 24.2585 14.87 24.1682 15.0476 24.1682H15.0478C15.2254 24.1683 15.3908 24.2587 15.4867 24.4082C15.8059 24.9057 16.2835 25.2881 16.7454 25.6579C17.4705 26.2386 18.2204 26.8389 18.2204 27.8443C18.2204 28.0262 18.2046 28.2056 18.173 28.3818C18.4464 28.398 18.6632 28.6249 18.6632 28.9025V34.8012C18.663 35.0893 18.4295 35.3229 18.1414 35.3229ZM12.4536 34.2796H17.6196V29.424H17.4656C17.2876 29.424 17.122 29.3333 17.0261 29.1834C16.9302 29.0335 16.9174 28.845 16.9921 28.6834C17.1147 28.4184 17.1768 28.136 17.1768 27.8443C17.1768 27.3644 16.765 27.0103 16.093 26.4723C15.7518 26.1991 15.3798 25.9013 15.0473 25.5377C14.7062 25.9102 14.3248 26.2104 13.9752 26.4856C13.3062 27.0121 12.8962 27.3594 12.8962 27.8443C12.8962 28.1359 12.9583 28.4183 13.0809 28.6835C13.1556 28.8451 13.1428 29.0335 13.0469 29.1834C12.951 29.3333 12.7854 29.424 12.6074 29.424H12.4535V34.2796H12.4536Z" fill="#F2B84B" fill-opacity="0.9"/>
<path d="M28.822 35.3229H22.6127C22.3246 35.3229 22.0911 35.0893 22.0911 34.8012V28.9024C22.0911 28.6249 22.3077 28.3979 22.5811 28.3817C22.5496 28.2055 22.5337 28.0262 22.5337 27.8443C22.5337 26.8282 23.2846 26.2373 24.0107 25.6657C24.4786 25.2975 24.9624 24.9166 25.2892 24.4079C25.3851 24.2585 25.5506 24.1682 25.7281 24.1682H25.7283C25.9059 24.1683 26.0713 24.2587 26.1672 24.4082C26.4864 24.9057 26.964 25.2881 27.4259 25.6579C28.151 26.2386 28.9009 26.8389 28.9009 27.8443C28.9009 28.0261 28.8851 28.2056 28.8535 28.3818C29.127 28.3981 29.3437 28.625 29.3437 28.9025V34.8012C29.3437 35.0893 29.1101 35.3229 28.822 35.3229ZM23.1344 34.2796H28.3004V29.424H28.1464C27.9685 29.424 27.8028 29.3333 27.707 29.1834C27.6111 29.0335 27.5983 28.8451 27.673 28.6835C27.7956 28.4184 27.8577 28.136 27.8577 27.8443C27.8577 27.3644 27.4459 27.0103 26.7739 26.4723C26.4327 26.1991 26.0607 25.9013 25.7282 25.5377C25.3871 25.9102 25.0057 26.2104 24.6562 26.4856C23.9871 27.0121 23.5772 27.3594 23.5772 27.8443C23.5772 28.136 23.6393 28.4184 23.7619 28.6834C23.8366 28.8449 23.8238 29.0334 23.7279 29.1834C23.6321 29.3333 23.4664 29.424 23.2885 29.424H23.1345V34.2796H23.1344Z" fill="#F2B84B" fill-opacity="0.9"/>
<path d="M31.2015 21.9092H9.55184C9.34847 21.9092 9.16366 21.7911 9.07833 21.6065C8.35764 20.0475 7.99219 18.3873 7.99219 16.6721C7.99219 13.0196 10.8554 10.766 13.8867 8.38018C16.089 6.64683 18.3663 4.85437 19.9861 2.33251C20.082 2.18309 20.2475 2.09277 20.425 2.09277H20.4252C20.6029 2.09277 20.7682 2.18324 20.8641 2.33273C22.4461 4.79878 24.692 6.59697 26.8639 8.33592C29.8967 10.7641 32.7612 13.0576 32.7612 16.6721C32.7612 18.3873 32.3959 20.0475 31.6751 21.6065C31.5897 21.7911 31.4049 21.9092 31.2015 21.9092ZM9.89091 20.866H30.8625C31.4303 19.5338 31.718 18.1245 31.718 16.6721C31.718 13.5588 29.1664 11.5159 26.2118 9.15028C24.2584 7.58631 22.0664 5.83119 20.425 3.54243C18.7465 5.88299 16.5178 7.63706 14.5321 9.19999C11.5827 11.5213 9.03556 13.5261 9.03556 16.6721C9.03556 18.1245 9.32313 19.5338 9.89091 20.866Z" fill="#F2B84B" fill-opacity="0.9"/>
<path d="M27.3631 21.9092H13.3903C13.1597 21.9092 12.9564 21.7578 12.8904 21.5368C12.4315 19.9985 12.1987 18.3618 12.1987 16.6721C12.1987 13.0863 14.0417 10.8388 15.9929 8.45932C17.4121 6.72865 18.8795 4.93903 19.926 2.41463C20.0067 2.21976 20.197 2.09277 20.4079 2.09277H20.408C20.6189 2.09277 20.8092 2.21998 20.8899 2.41485C21.912 4.88358 23.3595 6.67924 24.7592 8.41566C26.7111 10.8371 28.5547 13.1241 28.5547 16.672C28.5547 18.3617 28.322 19.9985 27.863 21.5367C27.7969 21.7578 27.5936 21.9092 27.3631 21.9092ZM13.7843 20.866H26.969C27.329 19.5335 27.5113 18.1246 27.5113 16.6721C27.5113 13.4923 25.8595 11.4431 23.9469 9.07047C22.7619 7.60032 21.441 5.9619 20.4077 3.87479C19.3513 6.00893 18.006 7.64958 16.7996 9.12085C14.8906 11.4488 13.2419 13.4593 13.2419 16.6721C13.242 18.1246 13.4244 19.5335 13.7843 20.866Z" fill="#F2B84B" fill-opacity="0.9"/>
<path d="M34.8012 35.323H5.95231C5.66421 35.323 5.43066 35.0895 5.43066 34.8014V21.3876C5.43066 21.0995 5.66421 20.866 5.95231 20.866H34.8012C35.0893 20.866 35.3229 21.0995 35.3229 21.3876V34.8014C35.3229 35.0895 35.0893 35.323 34.8012 35.323ZM6.47396 34.2797H34.2796V21.9093H6.47396V34.2797Z" fill="#F2B84B" fill-opacity="0.9"/>
<path d="M5.73812 35.323H0.521647C0.233549 35.323 0 35.0894 0 34.8013V4.24772C0 3.95962 0.233549 3.72607 0.521647 3.72607H5.73812C6.02621 3.72607 6.25976 3.95962 6.25976 4.24772V34.8013C6.25976 35.0894 6.02621 35.323 5.73812 35.323ZM1.04329 34.2797H5.21647V4.76937H1.04329V34.2797Z" fill="#F2B84B" fill-opacity="0.9"/>
<path d="M5.73812 4.76934H0.521647C0.233549 4.76934 0 4.53579 0 4.2477V3.12988C0 1.40405 1.40405 0 3.12988 0C4.85571 0 6.25976 1.40405 6.25976 3.12988V4.2477C6.25976 4.53579 6.02621 4.76934 5.73812 4.76934ZM1.04329 3.72605H5.21647V3.12988C5.21647 1.97935 4.28041 1.04329 3.12988 1.04329C1.97935 1.04329 1.04329 1.97935 1.04329 3.12988V3.72605Z" fill="#F2B84B" fill-opacity="0.9"/>
<path d="M10.9547 24.89H5.7382C5.4501 24.89 5.21655 24.6564 5.21655 24.3683C5.21655 24.0802 5.4501 23.8467 5.7382 23.8467H10.9547C11.2428 23.8467 11.4763 24.0802 11.4763 24.3683C11.4763 24.6564 11.2428 24.89 10.9547 24.89Z" fill="#F2B84B" fill-opacity="0.9"/>
<path d="M34.8013 24.89H29.5849C29.2968 24.89 29.0632 24.6564 29.0632 24.3683C29.0632 24.0802 29.2968 23.8467 29.5849 23.8467H34.8013C35.0894 23.8467 35.323 24.0802 35.323 24.3683C35.323 24.6564 35.0894 24.89 34.8013 24.89Z" fill="#F2B84B" fill-opacity="0.9"/>
<path d="M22.1327 24.89H18.4067C18.1186 24.89 17.885 24.6564 17.885 24.3683C17.885 24.0802 18.1186 23.8467 18.4067 23.8467H22.1327C22.4208 23.8467 22.6544 24.0802 22.6544 24.3683C22.6544 24.6564 22.4208 24.89 22.1327 24.89Z" fill="#F2B84B" fill-opacity="0.9"/>
<path d="M5.73812 15.2024H0.521647C0.233549 15.2024 0 14.9688 0 14.6807V11.6999C0 11.4118 0.233549 11.1782 0.521647 11.1782H5.73812C6.02621 11.1782 6.25976 11.4118 6.25976 11.6999V14.6807C6.25976 14.9688 6.02621 15.2024 5.73812 15.2024ZM1.04329 14.1591H5.21647V12.2215H1.04329V14.1591Z" fill="#F2B84B" fill-opacity="0.9"/>
<path d="M11.6998 7.00492C9.76847 7.00492 8.19727 5.43372 8.19727 3.50243C8.19727 2.24445 8.87809 1.07663 9.97407 0.454899C10.1453 0.357798 10.3565 0.365251 10.5204 0.474275C10.6843 0.583224 10.7729 0.775265 10.7494 0.970659C10.737 1.07432 10.731 1.1712 10.731 1.26681C10.731 2.62279 11.8342 3.726 13.1902 3.726C13.6143 3.726 14.033 3.61571 14.401 3.4069C14.5722 3.30965 14.7834 3.31718 14.9474 3.42627C15.1112 3.5353 15.1998 3.72726 15.1764 3.92266C14.9658 5.67986 13.4712 7.00492 11.6998 7.00492ZM9.76265 1.98944C9.43007 2.41555 9.24056 2.94643 9.24056 3.50243C9.24056 4.85842 10.3438 5.96163 11.6998 5.96163C12.6122 5.96163 13.4199 5.46114 13.8438 4.70759C13.629 4.74843 13.4101 4.76929 13.1902 4.76929C11.5065 4.76929 10.0966 3.57517 9.76265 1.98944Z" fill="#F2B84B" fill-opacity="0.9"/>
<path d="M32.9383 5.51446H29.2122C28.3585 5.51446 27.6551 4.85853 27.5795 4.02404H26.9766C26.0726 4.02404 25.3372 3.28859 25.3372 2.38458C25.3372 1.48056 26.0726 0.745117 26.9766 0.745117H30.7027C31.5565 0.745117 32.2599 1.40105 32.3354 2.23554H32.9383C33.8423 2.23554 34.5778 2.97098 34.5778 3.875C34.5778 4.77901 33.8423 5.51446 32.9383 5.51446ZM26.9766 1.78841C26.6479 1.78841 26.3805 2.05587 26.3805 2.38458C26.3805 2.71329 26.6479 2.98075 26.9766 2.98075H28.1594C28.3288 2.98075 28.4877 3.06302 28.5855 3.20133C28.6832 3.33964 28.7077 3.51685 28.6512 3.67655C28.6279 3.7422 28.6161 3.80897 28.6161 3.875C28.6161 4.20371 28.8835 4.47117 29.2122 4.47117H32.9383C33.267 4.47117 33.5345 4.20371 33.5345 3.875C33.5345 3.54629 33.267 3.27883 32.9383 3.27883H31.7555C31.5861 3.27883 31.4272 3.19656 31.3295 3.05825C31.2317 2.91994 31.2072 2.74273 31.2637 2.58303C31.2871 2.51738 31.2988 2.4506 31.2988 2.38458C31.2988 2.05587 31.0314 1.78841 30.7027 1.78841H26.9766Z" fill="#F2B84B" fill-opacity="0.9"/>
<path d="M19.8971 18.9283H8.71891C8.43081 18.9283 8.19727 18.6948 8.19727 18.4067C8.19727 18.1186 8.43081 17.885 8.71891 17.885H19.8971C20.1852 17.885 20.4187 18.1186 20.4187 18.4067C20.4187 18.6948 20.1852 18.9283 19.8971 18.9283Z" fill="#F2B84B" fill-opacity="0.9"/>
<path d="M31.0754 14.4571H16.9164C16.6283 14.4571 16.3948 14.2236 16.3948 13.9355C16.3948 13.6474 16.6283 13.4138 16.9164 13.4138H31.0754C31.3635 13.4138 31.5971 13.6474 31.5971 13.9355C31.5971 14.2236 31.3635 14.4571 31.0754 14.4571Z" fill="#F2B84B" fill-opacity="0.9"/>
<path d="M20.4079 3.1359C20.1198 3.1359 19.8862 2.90235 19.8862 2.61425V1.26676C19.8862 0.978666 20.1198 0.745117 20.4079 0.745117C20.696 0.745117 20.9295 0.978666 20.9295 1.26676V2.61425C20.9295 2.90235 20.696 3.1359 20.4079 3.1359Z" fill="#F2B84B" fill-opacity="0.9"/>
</svg>
