<svg width="32" height="32" viewBox="0 0 32 32" fill="none" xmlns="http://www.w3.org/2000/svg">
<path d="M13.6907 28C13.9247 28.4054 14.2614 28.742 14.6667 28.976C15.0721 29.21 15.5319 29.3332 16 29.3332C16.4681 29.3332 16.9279 29.21 17.3333 28.976C17.7387 28.742 18.0753 28.4054 18.3093 28" stroke="#475C75" stroke-width="2.41667" stroke-linecap="round" stroke-linejoin="round"/>
<path d="M4.34934 20.4347C4.17516 20.6257 4.06021 20.8631 4.01848 21.1181C3.97674 21.3731 4.01003 21.6348 4.11428 21.8713C4.21853 22.1077 4.38925 22.3088 4.60568 22.45C4.8221 22.5913 5.07491 22.6666 5.33334 22.6667H26.6667C26.9251 22.6668 27.1779 22.5918 27.3945 22.4509C27.6111 22.3099 27.782 22.1091 27.8865 21.8728C27.991 21.6365 28.0247 21.3749 27.9833 21.1198C27.9419 20.8647 27.8272 20.6272 27.6533 20.4361C25.88 18.6081 24 16.6654 24 10.6667C24 8.54502 23.1571 6.51018 21.6569 5.00989C20.1566 3.5096 18.1217 2.66675 16 2.66675C13.8783 2.66675 11.8434 3.5096 10.3431 5.00989C8.84286 6.51018 8 8.54502 8 10.6667C8 16.6654 6.11867 18.6081 4.34934 20.4347Z" stroke="#475C75" stroke-width="2.41667" stroke-linecap="round" stroke-linejoin="round"/>
</svg>
