<svg width="69" height="69" viewBox="0 0 69 69" fill="none" xmlns="http://www.w3.org/2000/svg">
<path d="M12.9497 41.7164L33.6696 50.5577C34.0144 50.7131 34.4127 50.7131 34.7744 50.5577L55.5111 41.7164C56.0283 41.493 56.3562 40.9903 56.3562 40.4222L56.361 11.0673C56.361 10.6011 56.1182 10.1519 55.7394 9.89208C55.3606 9.63226 54.8579 9.58127 54.4087 9.77067L34.2228 18.3857L14.0543 9.78994C13.6221 9.60054 13.1219 9.65153 12.7237 9.91135C12.3254 10.1712 12.1021 10.601 12.1021 11.0866V40.4414C12.1021 41.0121 12.4299 41.5123 12.9471 41.7356L12.9497 41.7164ZM34.2235 47.7602L14.9023 39.5069V36.5712L33.6721 44.5845C34.0169 44.7399 34.4152 44.7399 34.7769 44.5845L53.5468 36.5712V39.5069L34.2256 47.7602H34.2235ZM53.5447 29.7674V33.5141L35.6222 41.1631V20.856L53.5447 13.2069V29.7674ZM14.9023 13.1925L32.8249 20.8415V41.1486L14.9023 33.4996V13.1925Z" fill="#F2B84B"/>
<path d="M60.3651 19.1148C59.5881 19.1148 58.9665 19.7365 58.9665 20.5135V43.0815L34.1893 53.5981L9.41204 43.0815V20.5135C9.41204 19.7365 8.79042 19.1148 8.01339 19.1148C7.23637 19.1148 6.61475 19.7365 6.61475 20.5135V44.0139C6.61475 44.5845 6.94255 45.0848 7.45978 45.3081L16.6797 49.2273L13.5376 63.2137C13.4501 63.629 13.5376 64.0588 13.8144 64.406C14.0742 64.7338 14.487 64.9232 14.9022 64.9232H22.9491C23.2599 64.9232 23.5537 64.8188 23.7941 64.6464L34.1721 56.8929L44.5501 64.6464C44.7929 64.8188 45.0843 64.9232 45.3951 64.9232H53.2331C53.6654 64.9232 54.0611 64.7338 54.3379 64.389C54.6148 64.0442 54.6998 63.612 54.6148 63.1967L51.4193 49.3315L60.9158 45.2909C61.433 45.0675 61.7608 44.5649 61.7608 43.9967V20.4963C61.7608 19.7193 61.1392 19.0977 60.3622 19.0977L60.3651 19.1148ZM22.514 62.1112H16.696L19.3378 50.3345L31.4085 55.4629L22.5162 62.1112H22.514ZM51.4871 62.1112H45.8756L36.9833 55.4629L48.7941 50.439L51.4871 62.1112Z" fill="#F2B84B"/>
</svg>
