<svg width="32" height="32" viewBox="0 0 32 32" fill="none" xmlns="http://www.w3.org/2000/svg">
<path d="M12.8946 5.51471C12.968 4.74183 13.327 4.0241 13.9014 3.50175C14.4757 2.97939 15.2242 2.68994 16.0006 2.68994C16.7769 2.68994 17.5254 2.97939 18.0998 3.50175C18.6741 4.0241 19.0331 4.74183 19.1066 5.51471C19.1507 6.01398 19.3145 6.49526 19.5841 6.91783C19.8537 7.34039 20.2211 7.69178 20.6552 7.94228C21.0893 8.19277 21.5774 8.33497 22.0782 8.35687C22.5789 8.37876 23.0776 8.27969 23.5319 8.06804C24.2374 7.74774 25.0368 7.7014 25.7746 7.93802C26.5124 8.17464 27.1357 8.67731 27.5233 9.34818C27.9109 10.0191 28.035 10.8101 27.8714 11.5675C27.7079 12.3248 27.2685 12.9942 26.6386 13.4454C26.2284 13.7332 25.8936 14.1155 25.6625 14.5601C25.4313 15.0046 25.3106 15.4983 25.3106 15.9994C25.3106 16.5004 25.4313 16.9941 25.6625 17.4387C25.8936 17.8832 26.2284 18.2656 26.6386 18.5534C27.2685 19.0046 27.7079 19.6739 27.8714 20.4313C28.035 21.1886 27.9109 21.9797 27.5233 22.6506C27.1357 23.3214 26.5124 23.8241 25.7746 24.0607C25.0368 24.2973 24.2374 24.251 23.5319 23.9307C23.0776 23.7191 22.5789 23.62 22.0782 23.6419C21.5774 23.6638 21.0893 23.806 20.6552 24.0565C20.2211 24.307 19.8537 24.6584 19.5841 25.0809C19.3145 25.5035 19.1507 25.9848 19.1066 26.484C19.0331 27.2569 18.6741 27.9746 18.0998 28.497C17.5254 29.0194 16.7769 29.3088 16.0006 29.3088C15.2242 29.3088 14.4757 29.0194 13.9014 28.497C13.327 27.9746 12.968 27.2569 12.8946 26.484C12.8505 25.9846 12.6867 25.5031 12.4171 25.0804C12.1474 24.6577 11.7799 24.3062 11.3456 24.0557C10.9112 23.8052 10.4229 23.663 9.92202 23.6412C9.4211 23.6195 8.92232 23.7188 8.46792 23.9307C7.76244 24.251 6.96302 24.2973 6.22525 24.0607C5.48748 23.8241 4.86415 23.3214 4.47656 22.6506C4.08898 21.9797 3.96487 21.1886 4.1284 20.4313C4.29192 19.6739 4.73139 19.0046 5.36125 18.5534C5.77141 18.2656 6.10622 17.8832 6.33737 17.4387C6.56851 16.9941 6.68919 16.5004 6.68919 15.9994C6.68919 15.4983 6.56851 15.0046 6.33737 14.5601C6.10622 14.1155 5.77141 13.7332 5.36125 13.4454C4.73227 12.994 4.29358 12.3248 4.13045 11.568C3.96732 10.8112 4.0914 10.0208 4.47856 9.35032C4.86573 8.67989 5.48833 8.17734 6.22537 7.94036C6.96241 7.70338 7.76123 7.74889 8.46658 8.06804C8.92093 8.27969 9.41958 8.37876 9.92032 8.35687C10.4211 8.33497 10.9092 8.19277 11.3433 7.94228C11.7774 7.69178 12.1448 7.34039 12.4144 6.91783C12.684 6.49526 12.8478 6.01398 12.8919 5.51471" stroke="#475C75" stroke-width="2.68966" stroke-linecap="round" stroke-linejoin="round"/>
<path d="M16 20C18.2091 20 20 18.2091 20 16C20 13.7909 18.2091 12 16 12C13.7909 12 12 13.7909 12 16C12 18.2091 13.7909 20 16 20Z" stroke="#475C75" stroke-width="2.68966" stroke-linecap="round" stroke-linejoin="round"/>
</svg>
