<svg width="50" height="50" viewBox="0 0 50 50" fill="none" xmlns="http://www.w3.org/2000/svg">
<path d="M33.985 25.486C33.8912 27.2221 33.2966 28.894 32.273 30.2994C31.2494 31.7048 29.8407 32.7837 28.217 33.4055C26.5933 34.0274 24.8243 34.1656 23.1237 33.8035C21.4232 33.4414 19.8639 32.5945 18.6344 31.3651C17.4049 30.1358 16.5579 28.5766 16.1956 26.8761C15.8333 25.1756 15.9714 23.4065 16.593 21.7828C17.2147 20.1591 18.2934 18.7502 19.6987 17.7264C21.1041 16.7027 22.7758 16.1079 24.512 16.014C24.917 15.992 25.129 16.474 24.914 16.817C24.1949 17.9675 23.8869 19.3278 24.0405 20.6759C24.194 22.024 24.7999 23.2803 25.7593 24.2397C26.7187 25.199 27.9749 25.805 29.323 25.9585C30.6711 26.112 32.0314 25.8041 33.182 25.085C33.526 24.87 34.007 25.081 33.985 25.486Z" stroke="black" stroke-width="2" stroke-linecap="round" stroke-linejoin="round"/>
</svg>
