<svg width="42" height="40" viewBox="0 0 42 40" fill="none" xmlns="http://www.w3.org/2000/svg">
<g clip-path="url(#clip0_233_726)">
<path d="M38.0885 17.2855C37.3888 16.332 36.3084 15.7865 35.1252 15.7865H31.1617V15.0385C31.1617 14.7046 30.8912 14.4341 30.5572 14.4341H5.80264C5.46869 14.4341 5.1982 14.7046 5.1982 15.0385V26.7176C4.78568 26.7206 4.51067 26.7493 4.47288 26.7538C4.43812 26.7584 4.40941 26.772 4.37768 26.7825C4.35048 26.7901 4.32479 26.7946 4.29911 26.8052C4.23111 26.8354 4.16915 26.8747 4.11778 26.9261C4.11778 26.9261 4.11627 26.9261 4.11627 26.9276C4.11627 26.9276 4.11627 26.9291 4.11476 26.9291C4.06338 26.9805 4.02409 27.0425 3.99387 27.1105C3.98329 27.1346 3.97876 27.1618 3.9712 27.1875C3.96213 27.2193 3.94702 27.2495 3.94249 27.2842C3.92587 27.4217 3.57076 30.6887 5.44149 32.5596C5.54878 32.6668 5.66211 32.7605 5.77695 32.8527H4.35199C4.01804 32.8527 3.74756 33.1232 3.74756 33.4571V34.5361C3.74756 35.8553 4.82042 36.9281 6.13962 36.9281H7.07348L6.35721 38.7943C6.28619 38.9802 6.31037 39.1887 6.4237 39.3534C6.53703 39.5181 6.7229 39.6148 6.92238 39.6148H29.4407C29.6401 39.6148 29.826 39.5166 29.9393 39.3534C30.0527 39.1887 30.0768 38.9802 30.0058 38.7943L29.2895 36.9296H30.2234C31.5426 36.9296 32.6155 35.8568 32.6155 34.5376V33.4586C32.6155 33.1247 32.345 32.8542 32.011 32.8542H29.2065C30.299 31.9596 31.0258 30.6389 31.1422 29.1505H32.283C34.4741 29.1505 36.387 27.7452 37.0415 25.6539L38.6357 20.5631C38.9878 19.4328 38.7881 18.239 38.0885 17.2855ZM31.1617 19.7607H34.7204L33.0959 24.9497C33.0536 25.0842 32.9312 25.1749 32.7892 25.1749H31.1618L31.1617 19.7607ZM12.6055 27.4793C12.2277 27.6817 11.865 27.9326 11.5462 28.2514C11.4389 28.3587 11.3452 28.472 11.2515 28.5884V25.1854C11.7577 25.7657 12.3214 26.5666 12.6055 27.4793ZM11.2546 31.9944C11.3377 31.1044 11.6036 29.9016 12.3999 29.1068C13.1842 28.3225 14.3628 28.0535 15.2831 27.9674L11.2546 31.9944ZM12.1098 32.8497L16.1414 28.8181C16.0568 29.7398 15.7848 30.917 14.9991 31.7042C14.2027 32.5006 12.9999 32.7666 12.1098 32.8497ZM17.3519 27.2843C17.3473 27.2495 17.3337 27.2208 17.3232 27.1875C17.3156 27.1619 17.3111 27.1347 17.3005 27.109C17.2703 27.041 17.231 26.979 17.1796 26.9276C17.1796 26.9276 17.1796 26.9261 17.1781 26.9261C17.1781 26.9261 17.1766 26.9261 17.1766 26.9246C17.1252 26.8732 17.0633 26.834 16.9953 26.8037C16.9696 26.7932 16.9439 26.7886 16.9167 26.7811C16.8849 26.772 16.8547 26.7569 16.8215 26.7524C16.7293 26.7418 15.2575 26.5846 13.7313 27.0259C13.0196 24.8741 11.1111 23.3388 11.0219 23.2678C10.9947 23.2466 10.963 23.2361 10.9343 23.2194C10.9101 23.2058 10.8889 23.1907 10.8633 23.1802C10.7242 23.1258 10.5701 23.1258 10.4311 23.1802C10.4054 23.1907 10.3842 23.2058 10.3601 23.2194C10.3313 23.2361 10.2996 23.2466 10.2724 23.2678C10.2286 23.3026 9.74051 23.6954 9.17387 24.3391V21.0616L9.93091 21.388C11.1005 21.8927 12.4423 21.8942 13.6119 21.388C14.4778 21.0147 15.4691 21.0147 16.3349 21.388C17.5045 21.8927 18.8448 21.8942 20.0204 21.3865C20.8833 21.0147 21.8746 21.0132 22.748 21.3895C23.916 21.8942 25.2549 21.8927 26.4244 21.3895L27.1876 21.0601V28.7241C27.1876 29.4736 26.5771 30.0841 25.8276 30.0841L17.157 30.0871C17.503 28.6682 17.3609 27.3704 17.3519 27.2843ZM10.0425 25.1869V28.5823C9.95037 28.4689 9.85366 28.3571 9.74788 28.2513C9.42904 27.9325 9.06639 27.6816 8.6886 27.4792C8.97269 26.571 9.53633 25.7701 10.0425 25.1869ZM8.8941 29.1067C9.68139 29.894 9.95338 31.0711 10.038 31.9944L6.01099 27.9674C6.93124 28.0535 8.10835 28.3224 8.8941 29.1067ZM5.15263 28.8181L9.18427 32.8497C8.29574 32.7666 7.09294 32.5006 6.29659 31.7043C5.5093 30.9186 5.23874 29.7413 5.15263 28.8181ZM28.5595 38.4059H7.80016L8.3668 36.928H27.9911L28.5595 38.4059ZM31.4034 34.0617V34.5362C31.4034 35.189 30.873 35.7194 30.2202 35.7194H28.428H28.4265H7.93296H7.93145H6.1393C5.48651 35.7194 4.95611 35.189 4.95611 34.5362V34.0617H31.4034ZM29.9527 28.7276C29.9527 31.0032 28.1016 32.8528 25.8275 32.8528H15.5174C15.6323 32.7606 15.7471 32.6654 15.8529 32.5597C16.2292 32.1834 16.5117 31.7497 16.7293 31.2964H25.8262C27.2436 31.2964 28.3951 30.1434 28.3951 28.7275V20.1444C28.3951 19.9404 28.2923 19.7515 28.1231 19.6397C27.9523 19.5278 27.7378 19.5082 27.5504 19.5898L25.9426 20.2834C25.0797 20.6551 24.087 20.6551 23.2151 20.2789C22.047 19.7741 20.7066 19.7741 19.5325 20.2819C18.6682 20.6536 17.6754 20.6551 16.8111 20.2804C15.6415 19.7757 14.2996 19.7757 13.1301 20.2804C12.2657 20.6536 11.2729 20.6536 10.4086 20.2804L8.80682 19.5883C8.62095 19.5067 8.40636 19.5263 8.2341 19.6381C8.06486 19.75 7.96211 19.9404 7.96211 20.1429V26.0801C7.80647 26.3793 7.67047 26.6951 7.56165 27.026C7.16425 26.9111 6.77134 26.8341 6.40415 26.7872L6.40718 15.6428H29.9529L29.9527 28.7276ZM37.481 20.2005L35.8868 25.2913C35.3896 26.8749 33.942 27.9402 32.2813 27.9402H31.1616V26.3838H32.7891C33.4615 26.3838 34.0478 25.9531 34.2488 25.311L35.9517 19.8755C36.0485 19.5672 35.9925 19.2287 35.8021 18.9688C35.6102 18.7089 35.305 18.5533 34.9816 18.5533H31.1616V16.9953H35.1251C35.9185 16.9953 36.6438 17.3625 37.1137 18.0017C37.5837 18.641 37.7182 19.4434 37.481 20.2005Z" fill="#F2B84B" fill-opacity="0.9"/>
<path d="M25.5964 13.4228C25.6992 13.4908 25.814 13.5226 25.9289 13.5226C26.1253 13.5226 26.3172 13.4274 26.4336 13.2506L27.038 12.3318C27.5382 11.5718 27.5382 10.5911 27.038 9.831C26.8038 9.47439 26.8038 9.015 27.038 8.65842L27.6409 7.74269C27.8238 7.46314 27.7482 7.08839 27.4687 6.90553C27.1906 6.72118 26.8159 6.79976 26.6315 7.0778L26.0286 7.99352C25.5269 8.75358 25.5269 9.73581 26.0286 10.4959C26.2628 10.851 26.2628 11.3119 26.0286 11.667L25.4242 12.5857C25.2413 12.8638 25.3184 13.2385 25.5964 13.4228Z" fill="#F2B84B" fill-opacity="0.9"/>
<path d="M21.4198 13.4231C21.5225 13.4911 21.6374 13.5228 21.7522 13.5228C21.9487 13.5228 22.1421 13.4276 22.2569 13.2508L22.8614 12.332C23.3615 11.572 23.3615 10.5913 22.8614 9.83121C22.6271 9.4746 22.6271 9.01521 22.8614 8.65863L23.4658 7.7429C23.6486 7.46335 23.5731 7.0886 23.2935 6.90574C23.014 6.7229 22.6392 6.79846 22.4564 7.07801L21.8534 7.99373C21.3533 8.75379 21.3518 9.73601 21.8534 10.4961C22.0877 10.8512 22.0877 11.3121 21.8534 11.6672L21.249 12.5859C21.0647 12.864 21.1417 13.2387 21.4198 13.4231Z" fill="#F2B84B" fill-opacity="0.9"/>
<path d="M17.243 13.4231C17.3458 13.4911 17.4606 13.5228 17.5755 13.5228C17.7719 13.5228 17.9653 13.4276 18.0802 13.2508L18.6846 12.332C19.1848 11.572 19.1848 10.5913 18.6846 9.83121C18.4504 9.4746 18.4504 9.01521 18.6846 8.65863L19.289 7.7429C19.4719 7.46335 19.3963 7.0886 19.1168 6.90574C18.8387 6.7229 18.464 6.79846 18.2796 7.07801L17.6767 7.99373C17.175 8.75379 17.175 9.73601 17.6767 10.4961C17.9109 10.8512 17.9109 11.3121 17.6767 11.6672L17.0723 12.5859C16.8879 12.864 16.965 13.2387 17.243 13.4231Z" fill="#F2B84B" fill-opacity="0.9"/>
<path d="M13.0663 13.4228C13.1691 13.4908 13.2839 13.5226 13.3988 13.5226C13.5952 13.5226 13.7871 13.4274 13.9035 13.2506L14.5079 12.3318C15.0081 11.5718 15.0081 10.5911 14.5079 9.831C14.2737 9.47439 14.2737 9.015 14.5094 8.65842L15.1124 7.74269C15.2952 7.46314 15.2196 7.08839 14.9401 6.90553C14.6621 6.72118 14.2873 6.79976 14.1029 7.0778L13.5 7.99352C12.9983 8.75358 12.9983 9.73581 13.5 10.4959C13.7342 10.851 13.7342 11.3119 13.5 11.667L12.8956 12.5857C12.7097 12.8638 12.7868 13.2385 13.0663 13.4228Z" fill="#F2B84B" fill-opacity="0.9"/>
<path d="M8.88958 13.4228C8.99233 13.4908 9.10717 13.5226 9.22202 13.5226C9.41846 13.5226 9.61037 13.4274 9.72673 13.2506L10.3312 12.3318C10.8313 11.5718 10.8313 10.5911 10.3312 9.831C10.0969 9.47439 10.0969 9.0135 10.3327 8.65842L10.9356 7.74269C11.1184 7.46314 11.0429 7.08839 10.7633 6.90553C10.4853 6.72118 10.1105 6.79976 9.92618 7.0778L9.32325 7.99352C8.82156 8.75358 8.82156 9.73581 9.32325 10.4959C9.55747 10.851 9.55747 11.3119 9.32325 11.667L8.71882 12.5857C8.53295 12.8638 8.61002 13.2385 8.88958 13.4228Z" fill="#F2B84B" fill-opacity="0.9"/>
</g>
<defs>
<clipPath id="clip0_233_726">
<rect width="42.0057" height="39.7351" fill="white"/>
</clipPath>
</defs>
</svg>
